Coordinates
version=1
nRows=6
nColumns=63
inDegrees=yes

Units are S.I. units (second, meters, Newtons, ...)
If the header above contains a line with 'inDegrees', this indicates whether rotational values are in degrees (yes) or radians (no).

endheader
time	pelvis_tilt	pelvis_list	pelvis_rotation	pelvis_tx	pelvis_ty	pelvis_tz	hip_flexion_r	hip_adduction_r	hip_rotation_r	knee_angle_r	knee_angle_r_beta	ankle_angle_r	subtalar_angle_r	mtp_angle_r	hip_flexion_l	hip_adduction_l	hip_rotation_l	knee_angle_l	knee_angle_l_beta	ankle_angle_l	subtalar_angle_l	mtp_angle_l	L5_S1_Flex_Ext	L5_S1_Lat_Bending	L5_S1_axial_rotation	L4_L5_Flex_Ext	L4_L5_Lat_Bending	L4_L5_axial_rotation	L3_L4_Flex_Ext	L3_L4_Lat_Bending	L3_L4_axial_rotation	L2_L3_Flex_Ext	L2_L3_Lat_Bending	L2_L3_axial_rotation	L1_L2_Flex_Ext	L1_L2_Lat_Bending	L1_L2_axial_rotation	L1_T12_Flex_Ext	L1_T12_Lat_Bending	L1_T12_axial_rotation	Abs_r3	Abs_r2	Abs_r1	Abs_t1	Abs_t2	neck_flexion	neck_bending	neck_rotation	arm_flex_r	arm_add_r	arm_rot_r	elbow_flex_r	pro_sup_r	wrist_flex_r	wrist_dev_r	arm_flex_l	arm_add_l	arm_rot_l	elbow_flex_l	pro_sup_l	wrist_flex_l	wrist_dev_l
3.915254	2.009856	-11.061234	94.782734	0.316789	1.054868	0.406375	22.009331	-8.319279	-15.004546	37.444401	0.653528	52.115501	17.469730	0.000000	19.157566	1.302128	-11.812257	30.402585	0.530625	47.826557	19.106818	0.000000	0.181202	-0.242139	1.285496	0.336511	-0.322045	1.365839	0.297697	-0.588737	1.365839	0.207096	-0.588737	1.124809	0.168264	-0.493770	1.044465	0.103539	-0.375073	0.964122	1.294309	-2.739124	7.149542	0.000000	0.000000	13.879905	-3.853125	-14.155680	9.376629	2.017425	62.364790	109.212384	87.844572	-2.853894	16.372493	30.043736	3.468948	92.923863	104.971693	73.677827	-12.871383	31.737660
3.932203	2.189902	-11.044072	95.274029	0.316511	1.054959	0.406598	21.960563	-8.206178	-15.277680	37.425881	0.653205	52.191205	17.395801	0.000000	19.227702	1.181354	-11.472978	30.538845	0.533003	47.732463	19.015766	0.000000	0.186748	-0.223810	1.206330	0.346810	-0.297668	1.281726	0.306808	-0.544173	1.281726	0.213434	-0.544173	1.055539	0.173414	-0.456394	0.980143	0.106708	-0.346682	0.904748	1.333922	-2.531788	6.709246	0.000000	0.000000	13.933324	-3.875404	-14.162346	9.437354	1.961476	62.392956	109.398352	87.713009	-2.484408	16.659895	30.071371	3.639660	92.786276	104.708224	75.954373	-11.860167	33.245624
3.949153	2.390521	-10.981251	95.809405	0.316131	1.056034	0.406564	21.589821	-8.026670	-15.711182	36.960914	0.645090	51.881539	17.346182	0.000000	19.052435	1.069094	-11.150851	30.328652	0.529335	47.290392	18.934316	0.000000	0.191873	-0.202678	1.124670	0.356326	-0.269562	1.194962	0.315227	-0.492792	1.194962	0.219291	-0.492792	0.984086	0.178173	-0.413301	0.913794	0.109636	-0.313948	0.843503	1.370526	-2.292736	6.255077	0.000000	0.000000	13.833943	-3.670463	-14.216616	9.571574	1.957880	62.477229	109.607504	87.515930	-2.341152	17.116446	30.317472	3.933201	92.640778	104.696700	76.462102	-12.275581	34.100751
3.966102	2.612550	-10.884026	96.401576	0.315587	1.057900	0.406338	20.944007	-7.802009	-16.332021	36.121762	0.630444	51.246187	17.330949	0.000000	18.680468	0.977756	-10.756360	29.821065	0.520476	46.560412	18.754659	0.000000	0.197454	-0.177615	1.030850	0.366693	-0.236228	1.095278	0.324398	-0.431852	1.095278	0.225671	-0.431852	0.901993	0.183356	-0.362192	0.837565	0.112825	-0.275125	0.773137	1.410397	-2.009213	5.733276	0.000000	0.000000	13.614311	-3.282938	-14.261113	9.788269	1.984587	62.657839	109.836346	86.944862	-2.667929	17.544022	30.710662	4.303459	92.403074	104.888850	75.519008	-13.903655	34.496319
3.983051	2.836069	-10.758228	96.999119	0.314979	1.060338	0.405939	20.087582	-7.551414	-17.068820	35.001365	0.610889	50.376490	17.343114	0.000000	18.152920	0.893419	-10.423541	29.092021	0.507752	45.648787	18.602564	0.000000	0.203955	-0.150869	0.934681	0.378765	-0.200655	0.993099	0.335078	-0.366822	0.993099	0.233100	-0.366822	0.817846	0.189393	-0.307651	0.759428	0.116540	-0.233696	0.701011	1.456830	-1.706657	5.198416	0.000000	0.000000	13.277033	-2.771309	-14.277801	10.033524	2.049011	62.850960	110.093105	86.507941	-3.406156	17.994239	31.293805	4.710321	92.252045	105.273982	72.831658	-16.766463	33.926612
4.000000	3.056488	-10.612014	97.586639	0.314315	1.063130	0.405446	19.090628	-7.288231	-17.888125	33.695375	0.588095	49.356344	17.390325	0.000000	17.523854	0.815082	-10.134484	28.214330	0.492433	44.624631	18.432193	0.000000	0.211378	-0.122389	0.834088	0.392550	-0.162778	0.886218	0.347273	-0.297577	0.886218	0.241584	-0.297577	0.729827	0.196286	-0.249576	0.677696	0.120781	-0.189581	0.625566	1.509853	-1.384492	4.638946	0.000000	0.000000	12.853632	-2.205045	-14.221051	10.290828	2.143571	63.078217	110.354124	86.127820	-4.544780	18.392797	31.978436	5.104308	92.117627	105.749554	68.897344	-20.210341	32.727965
